<svg version="1.1" viewBox="0.0 0.0 960.0 720.0" fill="none" stroke="none" stroke-linecap="square" stroke-miterlimit="10" xmlns:xlink="http://www.w3.org/1999/xlink" xmlns="http://www.w3.org/2000/svg"><clipPath id="p.0"><path d="m0 0l960.0 0l0 720.0l-960.0 0l0 -720.0z" clip-rule="nonzero"/></clipPath><g clip-path="url(#p.0)"><path fill="#000000" fill-opacity="0.0" d="m0 0l960.0 0l0 720.0l-960.0 0z" fill-rule="evenodd"/><path fill="#5a8c44" d="m108.698166 356.77954l0 0c0 -88.2699 71.556885 -159.82678 159.82677 -159.82678l452.00003 0l0 0c42.38867 0 83.04126 16.838837 113.01459 46.81218c29.973328 29.973343 46.812134 70.6259 46.812134 113.0146l0 0l0 0c0 88.26987 -71.556885 159.82678 -159.82672 159.82678l-452.00003 0c-88.26988 0 -159.82677 -71.556915 -159.82677 -159.82678z" fill-rule="evenodd"/><path stroke="#a86a0c" stroke-width="12.0" stroke-linejoin="round" stroke-linecap="butt" d="m108.698166 356.77954l0 0c0 -88.2699 71.556885 -159.82678 159.82677 -159.82678l452.00003 0l0 0c42.38867 0 83.04126 16.838837 113.01459 46.81218c29.973328 29.973343 46.812134 70.6259 46.812134 113.0146l0 0l0 0c0 88.26987 -71.556885 159.82678 -159.82672 159.82678l-452.00003 0c-88.26988 0 -159.82677 -71.556915 -159.82677 -159.82678z" fill-rule="evenodd"/><path fill="#000000" fill-opacity="0.0" d="m115.15748 356.77954l0 0c0 -85.556305 69.35709 -154.9134 154.91339 -154.9134l448.9134 0l0 0c41.08557 0 80.4884 16.321198 109.54028 45.373093c29.05194 29.05188 45.373108 68.45471 45.373108 109.54031l0 0l0 0c0 85.556274 -69.35712 154.91336 -154.91339 154.91336l-448.9134 0c-85.55629 0 -154.91339 -69.357086 -154.91339 -154.91336z" fill-rule="evenodd"/><path stroke="#000000" stroke-width="2.0" stroke-linejoin="round" stroke-linecap="butt" d="m115.15748 356.77954l0 0c0 -85.556305 69.35709 -154.9134 154.91339 -154.9134l448.9134 0l0 0c41.08557 0 80.4884 16.321198 109.54028 45.373093c29.05194 29.05188 45.373108 68.45471 45.373108 109.54031l0 0l0 0c0 85.556274 -69.35712 154.91336 -154.91339 154.91336l-448.9134 0c-85.55629 0 -154.91339 -69.357086 -154.91339 -154.91336z" fill-rule="evenodd"/><path fill="#000000" fill-opacity="0.0" d="m103.31759 356.79266l0 0c0 -91.84454 74.45469 -166.29922 166.2992 -166.29922l449.82675 0l0 0c44.105347 0 86.404175 17.520752 117.59131 48.707916c31.187195 31.187134 48.707947 73.48599 48.707947 117.59131l0 0l0 0c0 91.84451 -74.45471 166.2992 -166.29926 166.2992l-449.82675 0c-91.84451 0 -166.2992 -74.45468 -166.2992 -166.2992z" fill-rule="evenodd"/><path stroke="#000000" stroke-width="2.0" stroke-linejoin="round" stroke-linecap="butt" d="m103.31759 356.79266l0 0c0 -91.84454 74.45469 -166.29922 166.2992 -166.29922l449.82675 0l0 0c44.105347 0 86.404175 17.520752 117.59131 48.707916c31.187195 31.187134 48.707947 73.48599 48.707947 117.59131l0 0l0 0c0 91.84451 -74.45471 166.2992 -166.29926 166.2992l-449.82675 0c-91.84451 0 -166.2992 -74.45468 -166.2992 -166.2992z" fill-rule="evenodd"/></g></svg>