<svg version="1.1" viewBox="0.0 0.0 960.0 720.0" fill="none" stroke="none" stroke-linecap="square" stroke-miterlimit="10" xmlns:xlink="http://www.w3.org/1999/xlink" xmlns="http://www.w3.org/2000/svg"><clipPath id="p.0"><path d="m0 0l960.0 0l0 720.0l-960.0 0l0 -720.0z" clip-rule="nonzero"/></clipPath><g clip-path="url(#p.0)"><path fill="#000000" fill-opacity="0.0" d="m0 0l960.0 0l0 720.0l-960.0 0z" fill-rule="evenodd"/><path fill="#5a8c44" d="m94.16798 284.27823l0 0c0 -88.2699 71.55689 -159.82678 159.82678 -159.82678l452.0 0l0 0c42.38867 0 83.04126 16.838837 113.01459 46.81218c29.973328 29.973328 46.812195 70.6259 46.812195 113.0146l0 0l0 0c0 88.26987 -71.556885 159.82675 -159.82678 159.82675l-452.0 0c-88.26988 0 -159.82678 -71.556885 -159.82678 -159.82675z" fill-rule="evenodd"/><path stroke="#a86a0c" stroke-width="12.0" stroke-linejoin="round" stroke-linecap="butt" d="m94.16798 284.27823l0 0c0 -88.2699 71.55689 -159.82678 159.82678 -159.82678l452.0 0l0 0c42.38867 0 83.04126 16.838837 113.01459 46.81218c29.973328 29.973328 46.812195 70.6259 46.812195 113.0146l0 0l0 0c0 88.26987 -71.556885 159.82675 -159.82678 159.82675l-452.0 0c-88.26988 0 -159.82678 -71.556885 -159.82678 -159.82675z" fill-rule="evenodd"/><path fill="#000000" fill-opacity="0.0" d="m100.6273 284.27823l0 0c0 -85.55632 69.35708 -154.9134 154.91339 -154.9134l448.91336 0l0 0c41.085632 0 80.488464 16.321198 109.540344 45.373093c29.05188 29.051895 45.373047 68.45471 45.373047 109.54031l0 0l0 0c0 85.556274 -69.357056 154.91336 -154.91339 154.91336l-448.91336 0c-85.556305 0 -154.91339 -69.357086 -154.91339 -154.91336z" fill-rule="evenodd"/><path stroke="#000000" stroke-width="2.0" stroke-linejoin="round" stroke-linecap="butt" d="m100.6273 284.27823l0 0c0 -85.55632 69.35708 -154.9134 154.91339 -154.9134l448.91336 0l0 0c41.085632 0 80.488464 16.321198 109.540344 45.373093c29.05188 29.051895 45.373047 68.45471 45.373047 109.54031l0 0l0 0c0 85.556274 -69.357056 154.91336 -154.91339 154.91336l-448.91336 0c-85.556305 0 -154.91339 -69.357086 -154.91339 -154.91336z" fill-rule="evenodd"/><path fill="#000000" fill-opacity="0.0" d="m88.7874 284.29135l0 0c0 -91.84453 74.4547 -166.29922 166.29921 -166.29922l449.82678 0l0 0c44.105286 0 86.40411 17.520752 117.59131 48.707916c31.187134 31.18715 48.707886 73.48601 48.707886 117.59131l0 0l0 0c0 91.84451 -74.45465 166.2992 -166.2992 166.2992l-449.82678 0c-91.84451 0 -166.29921 -74.45468 -166.29921 -166.2992z" fill-rule="evenodd"/><path stroke="#000000" stroke-width="2.0" stroke-linejoin="round" stroke-linecap="butt" d="m88.7874 284.29135l0 0c0 -91.84453 74.4547 -166.29922 166.29921 -166.29922l449.82678 0l0 0c44.105286 0 86.40411 17.520752 117.59131 48.707916c31.187134 31.18715 48.707886 73.48601 48.707886 117.59131l0 0l0 0c0 91.84451 -74.45465 166.2992 -166.2992 166.2992l-449.82678 0c-91.84451 0 -166.29921 -74.45468 -166.29921 -166.2992z" fill-rule="evenodd"/><path fill="#000000" fill-opacity="0.0" d="m175.46982 284.27823l0 0c0 -57.028854 46.231003 -103.25986 103.25983 -103.25986l405.98428 0l0 0c27.38617 0 53.650757 10.879135 73.01575 30.24411c19.36493 19.364975 30.24408 45.629517 30.24408 73.01575l0 0l0 0c0 57.02881 -46.231018 103.25983 -103.25983 103.25983l-405.98428 0c-57.028824 0 -103.25983 -46.231018 -103.25983 -103.25983z" fill-rule="evenodd"/><path stroke="#d9d9d9" stroke-width="2.0" stroke-linejoin="round" stroke-linecap="butt" d="m175.46982 284.27823l0 0c0 -57.028854 46.231003 -103.25986 103.25983 -103.25986l405.98428 0l0 0c27.38617 0 53.650757 10.879135 73.01575 30.24411c19.36493 19.364975 30.24408 45.629517 30.24408 73.01575l0 0l0 0c0 57.02881 -46.231018 103.25983 -103.25983 103.25983l-405.98428 0c-57.028824 0 -103.25983 -46.231018 -103.25983 -103.25983z" fill-rule="evenodd"/></g></svg>